<?xml version="1.0" standalone="no"?><!DOCTYPE svg PUBLIC "-//W3C//DTD SVG 1.1//EN" "http://www.w3.org/Graphics/SVG/1.1/DTD/svg11.dtd"><svg t="1650199034026" class="icon" viewBox="0 0 1088 1024" version="1.1" xmlns="http://www.w3.org/2000/svg" p-id="1668" xmlns:xlink="http://www.w3.org/1999/xlink" width="212.5" height="200"><defs><style type="text/css">@font-face { font-family: feedback-iconfont; src: url("//at.alicdn.com/t/font_1031158_u69w8yhxdu.woff2?t=1630033759944") format("woff2"), url("//at.alicdn.com/t/font_1031158_u69w8yhxdu.woff?t=1630033759944") format("woff"), url("//at.alicdn.com/t/font_1031158_u69w8yhxdu.ttf?t=1630033759944") format("truetype"); }
</style></defs><path d="M492.50419 1021.607197c-175.510584-20.915438-326.587843-116.410081-416.96556-264.033415-31.341176-51.169266-57.245617-118.456852-70.357742-184.017474C1.21527 553.728217 0 533.452395 0 483.114629c0-57.117694 0.895462-68.950587 6.971813-98.948569C46.755917 188.315693 186.575938 49.519058 387.031539 6.217066 411.145056 0.908254 424.768873 0.012792 477.98491 0.012792 547.703036-0.243054 569.897705 3.210871 631.428748 22.655193c72.084704 23.473901 128.690705 57.949194 185.360668 112.764271 69.718126 67.543432 111.037308 142.442446 132.208592 238.832551 9.018583 39.912028 9.914045 131.760861 1.790924 170.201772-4.669196 22.386554-4.669196 25.712556-0.639615 33.068139 4.989003 9.594237 4.669196 9.338391 74.131474 27.119711 52.576421 13.559856 58.97258 16.693973 62.746313 31.660984 4.093541 15.862473-33.707754 97.861222-68.247009 147.87918-84.877021 123.190009-217.085613 206.595913-370.785297 233.459778-30.829483 5.372773-123.445855 7.67539-155.426647 3.965618z m135.150825-195.082828a363.301792 363.301792 0 0 0 172.312505-86.156253c34.859063-31.149291 73.555821-85.708521 89.226408-126.643934 14.775126-38.440911 15.990396-37.609411-91.592987-64.473276-30.509675-7.931236-36.010371-16.118319-31.341176-48.354957 11.896854-81.678942-20.659591-171.864774-83.981558-231.54093a291.025203 291.025203 0 0 0-364.069331-28.207058c-82.510442 57.117694-126.132242 149.542181-121.2072 257.509333 4.093541 91.273179 40.103913 170.457619 106.623959 234.611087 84.557213 81.99875 206.020259 116.729889 324.02938 93.255988z" fill="#4D74FF" p-id="1669"></path></svg>