<?xml version="1.0" standalone="no"?><!DOCTYPE svg PUBLIC "-//W3C//DTD SVG 1.1//EN" "http://www.w3.org/Graphics/SVG/1.1/DTD/svg11.dtd"><svg viewBox="0 0 1024 1024" version="1.1" xmlns="http://www.w3.org/2000/svg" xmlns:xlink="http://www.w3.org/1999/xlink" width="200" height="200"><path d="M773.9392 301.8752m-200.0384 0a200.0384 200.0384 0 1 0 400.0768 0 200.0384 200.0384 0 1 0-400.0768 0Z" fill="#13227a"></path><path d="M924.4672 706.2528a24.32 24.32 0 0 1-24.2688 24.2688h-145.7664a24.3712 24.3712 0 0 0-24.2688 24.32 24.2688 24.2688 0 0 0 24.2688 24.2688h48.5888a24.32 24.32 0 0 1 24.2688 24.32 24.32 24.32 0 0 1-24.2688 24.2688h-64.512A388.7616 388.7616 0 0 1 122.88 390.4512h-48.5888a24.32 24.32 0 0 1 0-48.5888h97.28a24.2688 24.2688 0 0 0 6.8096-47.5648l0.768-0.9728H122.88a24.32 24.32 0 1 1 0-48.5888h101.632a388.7616 388.7616 0 0 1 619.52 437.248h56.32a24.32 24.32 0 0 1 24.1152 24.2688z" fill="#1296db"></path><path d="M724.224 575.232c-5.7344-40.2432-26.112-70.656-62.0544-89.9584a111.1552 111.1552 0 0 0-66.9184-12.6976c-3.2768 0.3584-4.5568-0.5632-4.2496-4.096v-6.7584-5.12a133.12 133.12 0 0 0-0.3584-13.7728 116.5312 116.5312 0 0 0-12.2368-40.96 24.064 24.064 0 0 0-1.3312-2.5088v-0.5632a120.4224 120.4224 0 0 0-19.9168-26.4704l-2.048-1.9456A22.9376 22.9376 0 0 0 552.96 368.64a116.1216 116.1216 0 0 0-93.3376-28.8768 114.8416 114.8416 0 0 0-91.904 68.9664A116.224 116.224 0 0 0 358.4 467.456c0.3584 4.4544-0.8704 5.12-4.352 4.8128a97.28 97.28 0 0 0-18.8928-0.7168 117.76 117.76 0 0 0-107.52 143.7696c0.8192 3.5328 1.8432 7.0656 2.9696 10.24 0.3584 1.1776 0.768 2.304 1.1776 3.4304l1.3312 3.3792 0.3072 0.6656a26.4192 26.4192 0 0 0 1.0752 2.5088 117.4528 117.4528 0 0 0 224.4608-48.4352v-3.9424a10.5984 10.5984 0 0 1 11.008-10.9056h3.8912a116.736 116.736 0 0 0 80.1792-31.6928l3.8912-3.7888h0.3072a68.0448 68.0448 0 0 1 70.144-16.5376c29.7984 9.1136 46.4896 30.72 50.688 61.44a23.7568 23.7568 0 0 0 10.24 16.9984 21.2992 21.2992 0 0 0 24.6784 0 22.7328 22.7328 0 0 0 10.24-23.4496zM341.504 660.48a71.2192 71.2192 0 0 1-71.3728-71.68c-0.3584-37.4272 31.4368-72.3968 71.2704-70.9632a71.2192 71.2192 0 1 1 0 142.3872z m133.12-133.12a71.68 71.68 0 1 1 71.68-71.3728A71.0656 71.0656 0 0 1 474.7264 527.36zM724.5824 682.24a22.3744 22.3744 0 0 1-22.1696 22.784 23.0912 23.0912 0 0 1-22.8864-22.9376 22.5792 22.5792 0 0 1 22.8352-22.1696 21.4528 21.4528 0 0 1 22.2208 22.3232z" fill="#FFFFFF"></path></svg>