<?xml version="1.0" standalone="no"?><!DOCTYPE svg PUBLIC "-//W3C//DTD SVG 1.1//EN" "http://www.w3.org/Graphics/SVG/1.1/DTD/svg11.dtd"><svg viewBox="0 0 1024 1024" version="1.1" xmlns="http://www.w3.org/2000/svg" xmlns:xlink="http://www.w3.org/1999/xlink" width="200" height="200"><path d="M898 178.7H665.3c4.3-9.8 6.7-20.6 6.7-32 0-44-36-80-80-80H432c-44 0-80 36-80 80 0 11.4 2.4 22.2 6.7 32H126c-13.2 0-24 10.8-24 24s10.8 24 24 24h772c13.2 0 24-10.8 24-24s-10.8-24-24-24zM812 280.7H212c-13.3 0-24 10.7-24 24v530c0 68.4 55.6 124 124 124h400c68.4 0 124-55.6 124-124v-530c0-13.2-10.7-24-24-24z m-416 461c0 18.1-14.9 33-33 33h-2c-18.2 0-33-14.8-33-33v-334c0-18.2 14.8-33 33-33h2c18.1 0 33 14.8 33 33v334z m150 0c0 18.1-14.9 33-33 33h-2c-18.2 0-33-14.8-33-33v-334c0-18.2 14.8-33 33-33h2c18.1 0 33 14.8 33 33v334z m150 0c0 18.1-14.9 33-33 33h-2c-18.2 0-33-14.8-33-33v-334c0-18.2 14.8-33 33-33h2c18.1 0 33 14.8 33 33v334z"></path></svg>