<?xml version="1.0" standalone="no"?><!DOCTYPE svg PUBLIC "-//W3C//DTD SVG 1.1//EN" "http://www.w3.org/Graphics/SVG/1.1/DTD/svg11.dtd"><svg viewBox="0 0 1024 1024" version="1.1" xmlns="http://www.w3.org/2000/svg" width="200" height="200"><path d="M875.3 217.5c-49.9-50-116.5-77.5-187.5-77.5-55.4 0-108.5 16.9-153.5 49-13.5 9.6-31.6 9.6-45 0-45-32-98.1-49-153.5-49-71 0-137.6 27.5-187.5 77.5S70.8 334 70.8 405c0 70.9 27.6 137.5 77.8 187.5l283.2 285.8c21.3 21.5 49.8 33.4 80 33.4s58.7-11.9 80-33.4L875 592.5c50.1-50.1 77.8-116.7 77.8-187.5 0-71-27.6-137.6-77.5-187.5z" fill="#E5404F"></path></svg>