<?xml version="1.0" standalone="no"?><!DOCTYPE svg PUBLIC "-//W3C//DTD SVG 1.1//EN" "http://www.w3.org/Graphics/SVG/1.1/DTD/svg11.dtd"><svg viewBox="0 0 1024 1024" version="1.1" xmlns="http://www.w3.org/2000/svg" width="200" height="200"><path d="M875.3 217.5c-49.9-50-116.5-77.5-187.5-77.5-33.8 0-66.7 6.3-97.8 18.7-12.3 4.9-18.3 18.9-13.4 31.2s18.9 18.3 31.2 13.4c25.5-10.1 52.4-15.3 80.1-15.3 119.6 0 217 97.4 217 217 0 58-22.6 112.6-63.7 153.6l-0.1 0.1-283.4 285.8c-12.2 12.4-28.6 19.2-46 19.2s-33.7-6.8-45.9-19.2L182.6 558.7l-0.1-0.1c-41.1-41-63.7-95.6-63.7-153.6 0-119.6 97.3-217 216.9-217 119.9 0 217.5 97.6 217.5 217.5 0 13.3 10.7 24 24 24s24-10.7 24-24c0-70.9-27.6-137.6-77.8-187.8-50.1-50.1-116.7-77.7-187.6-77.7h-0.1-0.1c-70.9 0-137.5 27.5-187.4 77.5C98.3 267.4 70.8 334 70.8 405c0 70.9 27.6 137.5 77.8 187.5l283.2 285.8c21.3 21.5 49.8 33.4 80 33.4 30.3 0 58.7-11.9 80-33.4L875 592.5c50.1-50.1 77.8-116.7 77.8-187.5 0-71-27.6-137.6-77.5-187.5z"></path></svg>