<?xml version="1.0" standalone="no"?><!DOCTYPE svg PUBLIC "-//W3C//DTD SVG 1.1//EN" "http://www.w3.org/Graphics/SVG/1.1/DTD/svg11.dtd"><svg class="icon" viewBox="0 0 1024 1024" version="1.1" xmlns="http://www.w3.org/2000/svg" xmlns:xlink="http://www.w3.org/1999/xlink" width="200" height="200"><path d="M896 117.333333A32 32 0 0 1 928 149.333333v618.666667a32 32 0 0 1-32 32H654.272l-117.589333 118.528a32 32 0 0 1-42.794667 2.389333l-2.453333-2.197333-119.786667-118.72H128a32 32 0 0 1-31.850667-28.928L96 768V149.333333A32 32 0 0 1 128 117.333333zM544 597.333333h-64v64h64v-64z m0-330.666666h-64v256h64v-256z" fill="#111111"></path></svg>