<?xml version="1.0" standalone="no"?><!DOCTYPE svg PUBLIC "-//W3C//DTD SVG 1.1//EN" "http://www.w3.org/Graphics/SVG/1.1/DTD/svg11.dtd"><svg viewBox="0 0 1024 1024" version="1.1" xmlns="http://www.w3.org/2000/svg" xmlns:xlink="http://www.w3.org/1999/xlink" width="200" height="200"><path d="M748.8 373.333333c-2.133333 0-2.133333 0-4.266667-4.266666 0-2.133333 0-6.4-2.133333-6.4-2.133333-4.266667-2.133333-8.533333-4.266667-12.8-2.133333-2.133333-2.133333-4.266667-2.133333-6.4v-4.266667c-2.133333-2.133333-2.133333-4.266667-2.133333-6.4-2.133333-2.133333-2.133333-4.266667-2.133334-8.533333-2.133333-2.133333-2.133333-6.4-2.133333-8.533334 0-2.133333-2.133333-2.133333-2.133333-2.133333 0-2.133333-2.133333-4.266667-2.133334-6.4 0-2.133333-2.133333-6.4-4.266666-8.533333 0-2.133333-2.133333-4.266667-2.133334-6.4-2.133333-4.266667-2.133333-6.4-4.266666-10.666667-2.133333-2.133333-2.133333-6.4-4.266667-10.666667-2.133333-2.133333-2.133333-6.4-4.266667-8.533333l-6.4-12.8-6.4-12.8-6.4-12.8c-2.133333-2.133333-2.133333-2.133333-2.133333-4.266667s-2.133333-4.266667-4.266667-6.4c-2.133333-2.133333-2.133333-6.4-4.266666-6.4 0-2.133333-4.266667-4.266667-2.133334-6.4-2.133333 0-2.133333-4.266667-6.4-6.4 0-2.133333-2.133333-4.266667-4.266666-6.4-2.133333-2.133333-2.133333-4.266667-4.266667-6.4l-2.133333-2.133333c-2.133333-4.266667-4.266667-6.4-6.4-8.533333-2.133333-4.266667-4.266667-6.4-6.4-8.533334-2.133333-2.133333-6.4-4.266667-8.533334-6.4-2.133333-2.133333-6.4-4.266667-8.533333-4.266666-4.266667 0-8.533333-2.133333-10.666667-2.133334 0 0 0-2.133333-2.133333-2.133333h-405.333333c-8.533333 2.133333-10.666667 2.133333-10.666667 4.266667-2.133333 0-4.266667 2.133333-4.266667 4.266666-2.133333 2.133333 2.133333 8.533333 4.266667 10.666667 2.133333 0 2.133333 2.133333 4.266667 2.133333l2.133333 2.133334c2.133333 0 2.133333 0 2.133333 2.133333s2.133333 2.133333 2.133334 2.133333c2.133333 2.133333 6.4 4.266667 8.533333 6.4 4.266667 4.266667 6.4 6.4 10.666667 8.533334 2.133333 2.133333 6.4 4.266667 8.533333 6.4l6.4 6.4c4.266667 2.133333 6.4 4.266667 8.533333 6.4 2.133333 2.133333 4.266667 2.133333 4.266667 4.266666 2.133333 2.133333 4.266667 2.133333 4.266667 2.133334 2.133333 4.266667 8.533333 6.4 12.8 10.666666 4.266667 4.266667 8.533333 6.4 12.8 10.666667 4.266667 4.266667 10.666667 8.533333 14.933333 12.8l10.666667 10.666667c2.133333 2.133333 6.4 4.266667 8.533333 8.533333 2.133333 2.133333 4.266667 4.266667 6.4 4.266667l12.8 12.8c4.266667 2.133333 6.4 6.4 10.666667 8.533333l12.8 12.8c2.133333 2.133333 4.266667 2.133333 4.266666 4.266667s2.133333 4.266667 4.266667 4.266666c4.266667 4.266667 8.533333 6.4 10.666667 10.666667 2.133333 2.133333 4.266667 2.133333 4.266666 4.266667 2.133333 2.133333 4.266667 4.266667 4.266667 6.4 2.133333 4.266667 6.4 6.4 8.533333 10.666666 2.133333 4.266667 6.4 6.4 8.533334 10.666667 4.266667 4.266667 6.4 8.533333 8.533333 10.666667 2.133333 2.133333 2.133333 4.266667 4.266667 6.4 2.133333 0 2.133333 2.133333 2.133333 2.133333 2.133333 2.133333 4.266667 4.266667 6.4 8.533333l6.4 6.4c4.266667 4.266667 6.4 10.666667 10.666667 14.933334 2.133333 2.133333 2.133333 4.266667 2.133333 4.266666 2.133333 2.133333 4.266667 4.266667 4.266667 6.4 2.133333 2.133333 4.266667 4.266667 6.4 8.533334 2.133333 2.133333 4.266667 6.4 6.4 8.533333 2.133333 2.133333 4.266667 4.266667 4.266666 6.4 2.133333 2.133333 2.133333 4.266667 4.266667 6.4 2.133333 2.133333 2.133333 4.266667 4.266667 6.4 2.133333 2.133333 2.133333 4.266667 4.266666 6.4 2.133333 2.133333 2.133333 4.266667 4.266667 6.4 2.133333 2.133333 2.133333 4.266667 4.266667 6.4 0 2.133333 2.133333 2.133333 2.133333 4.266667s2.133333 4.266667 2.133333 4.266666c2.133333 2.133333 4.266667 4.266667 4.266667 6.4 2.133333 4.266667 4.266667 6.4 6.4 10.666667l6.4 12.8c2.133333 2.133333 4.266667 6.4 6.4 8.533333 0 2.133333 0 4.266667 2.133333 4.266667 2.133333 2.133333 2.133333 4.266667 4.266667 6.4 0 2.133333 2.133333 4.266667 2.133333 4.266667 2.133333 0 2.133333 2.133333 2.133334 2.133333 2.133333 0 2.133333 0 4.266666-2.133333l8.533334-6.4 14.933333-14.933334 12.8-12.8c8.533333-6.4 14.933333-14.933333 23.466667-23.466666l14.933333-14.933334 12.8-12.8 10.666667-10.666666c4.266667-4.266667 8.533333-6.4 10.666666-8.533334 4.266667-2.133333 6.4-4.266667 8.533334-6.4 4.266667-2.133333 6.4-4.266667 10.666666-6.4 2.133333-2.133333 4.266667-2.133333 4.266667-4.266666 4.266667-4.266667 8.533333-6.4 14.933333-8.533334 4.266667-2.133333 10.666667-6.4 14.933334-8.533333 4.266667-2.133333 6.4-4.266667 10.666666-6.4 4.266667 0 8.533333-4.266667 12.8-6.4 2.133333 0 2.133333 0 4.266667-2.133333s6.4-2.133333 8.533333-4.266667c2.133333 0 2.133333-2.133333 4.266667-2.133333 6.4 2.133333 8.533333 2.133333 12.8-2.133334 0 2.133333 2.133333 2.133333 0 0" fill="#00D6B9"></path><path d="M844.8 620.8h-2.133333c-2.133333 2.133333-2.133333 4.266667-4.266667 6.4l-6.4 8.533333c-4.266667 6.4-10.666667 10.666667-17.066667 17.066667-4.266667 4.266667-8.533333 8.533333-14.933333 10.666667-2.133333 2.133333-4.266667 2.133333-6.4 4.266666-2.133333 2.133333-4.266667 4.266667-6.4 4.266667l-12.8 6.4c-6.4 4.266667-14.933333 6.4-21.333333 10.666667-4.266667 2.133333-8.533333 4.266667-12.8 4.266666-4.266667 2.133333-6.4 2.133333-10.666667 4.266667H725.333333c-4.266667 2.133333-6.4 2.133333-10.666666 2.133333-2.133333 0-6.4 0-8.533334 2.133334-4.266667 2.133333-8.533333 0-12.8 2.133333-6.4 0-10.666667 0-17.066666 2.133333h-32c-4.266667 0-8.533333-2.133333-14.933334-2.133333-2.133333-2.133333-4.266667-2.133333-4.266666-2.133333-4.266667 0-6.4 0-10.666667-2.133334-4.266667 0-6.4-2.133333-10.666667-2.133333-2.133333 0-4.266667 0-6.4-2.133333-2.133333-2.133333-4.266667-2.133333-8.533333-2.133334-6.4-2.133333-12.8-4.266667-19.2-4.266666-4.266667 0-8.533333-2.133333-12.8-4.266667-2.133333 0-6.4-2.133333-8.533333-2.133333-4.266667-2.133333-6.4-2.133333-10.666667-4.266667-6.4-2.133333-10.666667-4.266667-17.066667-6.4-6.4-2.133333-12.8-4.266667-21.333333-6.4-4.266667-2.133333-8.533333-4.266667-12.8-4.266667-2.133333 0-4.266667 0-6.4-2.133333-4.266667-2.133333-6.4-2.133333-10.666667-4.266667-2.133333-2.133333-6.4-2.133333-8.533333-4.266666-4.266667-2.133333-10.666667-2.133333-14.933333-6.4-4.266667 0-6.4-2.133333-8.533334-4.266667-6.4-2.133333-12.8-4.266667-19.2-8.533333-4.266667-2.133333-10.666667-4.266667-14.933333-6.4h-4.266667c-2.133333 0-4.266667-2.133333-6.4-4.266667-4.266667-2.133333-6.4-4.266667-10.666666-4.266667-2.133333 0-4.266667-2.133333-6.4-4.266666-2.133333 0-4.266667-2.133333-6.4-4.266667-4.266667-2.133333-6.4-4.266667-10.666667-6.4-2.133333-2.133333-4.266667-2.133333-6.4-2.133333-2.133333-2.133333-6.4-2.133333-8.533333-4.266667-4.266667 0-6.4-4.266667-10.666667-4.266667l-12.8-6.4c-2.133333 0-4.266667-2.133333-4.266667-2.133333-4.266667 0-8.533333-4.266667-10.666666-6.4-4.266667-2.133333-8.533333-4.266667-12.8-8.533333h-2.133334c-2.133333-2.133333-6.4-4.266667-10.666666-6.4-4.266667-2.133333-6.4-4.266667-10.666667-6.4-4.266667-2.133333-8.533333-4.266667-12.8-8.533334-2.133333-2.133333-6.4-2.133333-8.533333-4.266666-2.133333-2.133333-4.266667-2.133333-4.266667-4.266667-2.133333-2.133333-6.4-4.266667-8.533333-6.4-2.133333 0-4.266667-2.133333-4.266667-2.133333-2.133333-2.133333-4.266667-4.266667-6.4-4.266667-2.133333-2.133333-6.4-4.266667-10.666667-6.4-2.133333-2.133333-4.266667-2.133333-6.4-4.266667l-2.133333-2.133333c-2.133333 0-4.266667-2.133333-4.266667-4.266667l-6.4-6.4c-2.133333-2.133333-6.4-4.266667-8.533333-6.4-4.266667-2.133333-6.4-4.266667-8.533333-6.4-2.133333-2.133333-4.266667-4.266667-6.4-4.266666-4.266667-2.133333-6.4-4.266667-8.533334-6.4 4.266667-4.266667 2.133333-8.533333 0-8.533334-2.133333-2.133333-4.266667-4.266667-8.533333-6.4 0 0-2.133333 0-2.133333-2.133333l-6.4-6.4-6.4-6.4c-2.133333-2.133333-4.266667-4.266667-6.4-4.266667l-6.4-6.4-8.533334-8.533333c-2.133333-2.133333-4.266667-2.133333-6.4-4.266667l-8.533333-8.533333-10.666667-10.666667s-2.133333-2.133333-6.4-4.266666l-6.4-6.4c-4.266667-2.133333-6.4-6.4-10.666666-10.666667-2.133333-4.266667-6.4-6.4-10.666667-10.666667-2.133333-2.133333-6.4-6.4-10.666667-6.4-2.133333 0-4.266667 2.133333-4.266666 4.266667v388.266667c0 2.133333 0 2.133333 2.133333 2.133333 0 4.266667 2.133333 6.4 2.133333 8.533333 0 2.133333 2.133333 4.266667 2.133334 6.4 2.133333 2.133333 4.266667 6.4 6.4 8.533334l6.4 6.4c2.133333 2.133333 4.266667 4.266667 8.533333 4.266666 2.133333 2.133333 6.4 4.266667 8.533333 6.4 0 0 2.133333 0 2.133334 2.133334 2.133333 4.266667 4.266667 4.266667 8.533333 6.4 2.133333 2.133333 4.266667 2.133333 6.4 4.266666 6.4 2.133333 10.666667 6.4 14.933333 8.533334 2.133333 2.133333 6.4 4.266667 8.533334 4.266666h2.133333c4.266667 4.266667 10.666667 4.266667 14.933333 8.533334 0 0 2.133333 0 2.133334 2.133333 2.133333 2.133333 6.4 4.266667 8.533333 4.266667H149.333333c2.133333 0 2.133333 2.133333 4.266667 2.133333s4.266667 0 6.4 2.133333l2.133333 2.133334c4.266667 0 8.533333 2.133333 12.8 4.266666h4.266667c2.133333 2.133333 4.266667 2.133333 6.4 2.133334 2.133333 2.133333 6.4 2.133333 8.533333 2.133333h4.266667c2.133333 2.133333 4.266667 2.133333 6.4 2.133333 4.266667 2.133333 8.533333 2.133333 14.933333 4.266667 4.266667 2.133333 8.533333 2.133333 12.8 2.133333 4.266667 0 6.4 2.133333 10.666667 2.133334h4.266667c2.133333 6.4 6.4 6.4 8.533333 6.4 2.133333 2.133333 6.4 2.133333 10.666667 2.133333h2.133333c2.133333 2.133333 6.4 0 8.533333 2.133333 6.4 0 12.8 0 17.066667 2.133334 4.266667 2.133333 8.533333 0 12.8 2.133333 4.266667 2.133333 10.666667 0 14.933333 2.133333h10.666667c0 2.133333 0 2.133333 2.133333 2.133334h72.533334c2.133333 0 2.133333 0 2.133333-2.133334 8.533333 0 14.933333-2.133333 23.466667-2.133333h4.266666c2.133333 0 2.133333 0 2.133334-2.133333 4.266667 0 6.4 0 10.666666-2.133334 6.4-2.133333 10.666667 0 17.066667-2.133333 2.133333 0 6.4 0 8.533333-2.133333 4.266667 0 6.4-2.133333 10.666667-2.133334h2.133333c2.133333-2.133333 4.266667-2.133333 8.533334-2.133333 2.133333-2.133333 6.4-2.133333 8.533333-2.133333h2.133333c2.133333-2.133333 6.4-2.133333 8.533334-2.133334 4.266667 0 8.533333-2.133333 12.8-2.133333 2.133333 0 6.4-2.133333 8.533333-2.133333h2.133333c2.133333-2.133333 4.266667-2.133333 6.4-2.133334 4.266667 0 8.533333-2.133333 10.666667-4.266666h4.266667c2.133333-2.133333 6.4-4.266667 10.666666-4.266667h2.133334c2.133333-2.133333 4.266667-2.133333 6.4-2.133333 2.133333 0 6.4-2.133333 8.533333-4.266667 2.133333-2.133333 4.266667-2.133333 6.4-4.266667 2.133333 0 4.266667-2.133333 6.4-2.133333 2.133333 0 4.266667-4.266667 8.533333-4.266667 2.133333 0 4.266667-2.133333 6.4-2.133333 4.266667-2.133333 6.4-4.266667 10.666667-4.266667 2.133333-2.133333 4.266667-2.133333 6.4-4.266666 2.133333-2.133333 6.4-4.266667 8.533333-4.266667 4.266667-2.133333 6.4-4.266667 10.666667-6.4 4.266667-2.133333 6.4-4.266667 10.666667-6.4 2.133333 0 4.266667-2.133333 4.266666-4.266667 2.133333 0 4.266667-2.133333 6.4-2.133333 2.133333-2.133333 4.266667-2.133333 6.4-4.266667 2.133333-2.133333 4.266667-2.133333 6.4-4.266666 2.133333-2.133333 4.266667-2.133333 6.4-4.266667l2.133334-2.133333s2.133333 0 2.133333-2.133334l2.133333-2.133333c2.133333-2.133333 4.266667-4.266667 8.533334-6.4 2.133333 0 4.266667-2.133333 4.266666-4.266667 2.133333-2.133333 6.4-4.266667 8.533334-6.4 2.133333-2.133333 2.133333-4.266667 4.266666-4.266666 4.266667-2.133333 4.266667-4.266667 8.533334-6.4 2.133333 0 2.133333-2.133333 2.133333-2.133334 2.133333-2.133333 6.4-4.266667 8.533333-6.4 2.133333-2.133333 4.266667-2.133333 6.4-4.266666l6.4-6.4 6.4-6.4 10.666667-10.666667 10.666667-10.666667 6.4-6.4 6.4-6.4c2.133333-2.133333 2.133333-4.266667 4.266666-4.266666l6.4-6.4c2.133333-2.133333 4.266667-4.266667 6.4-8.533334 2.133333-2.133333 4.266667-4.266667 4.266667-6.4 2.133333-2.133333 4.266667-4.266667 4.266667-6.4 2.133333-2.133333 4.266667-4.266667 6.4-8.533333 2.133333-2.133333 4.266667-4.266667 6.4-8.533333 2.133333-2.133333 2.133333-4.266667 4.266666-6.4 2.133333-2.133333 2.133333-4.266667 4.266667-4.266667 2.133333-2.133333 4.266667-4.266667 6.4-8.533333 0-2.133333 0-2.133333 2.133333-4.266667-8.533333 4.266667-6.4 2.133333-8.533333 0" fill="#3370FF"></path><path d="M979.2 392.533333c0-2.133333 0-2.133333 0 0-2.133333-2.133333-4.266667-2.133333-6.4-2.133333-2.133333 0-2.133333-2.133333-4.266667-2.133333s-6.4-2.133333-6.4-2.133334c-2.133333-2.133333-6.4-2.133333-8.533333-4.266666-2.133333-2.133333-4.266667-2.133333-6.4-2.133334-2.133333 0-4.266667-2.133333-6.4-2.133333-2.133333 0-4.266667-2.133333-8.533333-2.133333s-8.533333-2.133333-12.8-4.266667c-2.133333 0-6.4-2.133333-8.533334-2.133333 0-2.133333-2.133333-2.133333-4.266666-2.133334s-4.266667 0-6.4-2.133333c-6.4-2.133333-12.8-2.133333-19.2-2.133333-4.266667-2.133333-10.666667 0-14.933334-2.133334h-8.533333c0-2.133333 0-2.133333-2.133333-2.133333h-29.866667c-2.133333 0-2.133333 0-2.133333 2.133333-8.533333 0-14.933333 2.133333-21.333334 2.133334h-4.266666c-2.133333 0-2.133333 0-2.133334 2.133333-4.266667 0-8.533333 2.133333-12.8 2.133333-4.266667 2.133333-6.4 2.133333-10.666666 2.133334-2.133333 0-6.4 0-8.533334 2.133333-2.133333 0-4.266667 2.133333-6.4 2.133333-2.133333 2.133333-6.4 2.133333-8.533333 2.133334v2.133333c-2.133333 0-4.266667 0-4.266667 2.133333-4.266667 2.133333-8.533333 2.133333-12.8 4.266667-4.266667 2.133333-6.4 4.266667-10.666666 4.266667s-6.4 4.266667-10.666667 4.266666c-2.133333 0-2.133333 0-4.266667 2.133334-2.133333 0-2.133333 2.133333-4.266666 2.133333s-4.266667 2.133333-6.4 4.266667c-2.133333 2.133333-6.4 4.266667-8.533334 6.4-2.133333 0-2.133333 0-4.266666 2.133333-2.133333 4.266667-6.4 4.266667-8.533334 6.4-4.266667 2.133333-6.4 4.266667-10.666666 6.4-2.133333 2.133333-6.4 4.266667-8.533334 6.4-4.266667 2.133333-6.4 6.4-10.666666 8.533333-2.133333 2.133333-2.133333 4.266667-4.266667 4.266667l-6.4 6.4-6.4 6.4-8.533333 8.533333-6.4 6.4c-4.266667 2.133333-6.4 6.4-10.666667 8.533334s-6.4 6.4-10.666667 10.666666-8.533333 6.4-10.666666 10.666667c-2.133333 4.266667-6.4 6.4-10.666667 10.666667l-10.666667 10.666666c-4.266667 2.133333-6.4 6.4-10.666666 10.666667l-8.533334 8.533333c-2.133333 2.133333-4.266667 6.4-8.533333 6.4 0 2.133333-2.133333 2.133333-2.133333 2.133334-4.266667 2.133333-6.4 4.266667-8.533334 8.533333-4.266667-6.4-6.4-2.133333-8.533333-2.133333-4.266667 2.133333-6.4 6.4-10.666667 8.533333-4.266667 2.133333-8.533333 6.4-10.666666 8.533333-2.133333 2.133333-4.266667 2.133333-6.4 4.266667 0 2.133333-4.266667 2.133333-4.266667 2.133333-2.133333 2.133333-6.4 4.266667-8.533333 6.4-2.133333 2.133333-4.266667 2.133333-6.4 4.266667-2.133333 0-2.133333 2.133333-4.266667 2.133333-2.133333 2.133333-6.4 4.266667-8.533333 6.4-2.133333 0-2.133333 2.133333-4.266667 2.133334-2.133333 2.133333-4.266667 2.133333-6.4 4.266666-2.133333 2.133333-4.266667 4.266667-6.4 4.266667-4.266667 2.133333-6.4 4.266667-8.533333 4.266667l-12.8 6.4c-2.133333 0-2.133333 0-4.266667 2.133333 0 0 0 2.133333 2.133333 2.133333 2.133333 2.133333 4.266667 2.133333 6.4 2.133334 2.133333 2.133333 6.4 2.133333 8.533334 4.266666 2.133333 2.133333 4.266667 2.133333 8.533333 4.266667 2.133333 0 2.133333 0 4.266667 2.133333s4.266667 2.133333 6.4 4.266667c2.133333 0 4.266667 2.133333 6.4 2.133333h4.266666c2.133333 2.133333 4.266667 2.133333 6.4 4.266667h4.266667c2.133333 2.133333 4.266667 2.133333 4.266667 2.133333 4.266667 2.133333 6.4 2.133333 10.666666 4.266667s6.4 2.133333 10.666667 4.266667c2.133333 2.133333 6.4 2.133333 8.533333 2.133333 2.133333 0 2.133333 2.133333 2.133334 2.133333 2.133333 0 6.4 0 8.533333 2.133334l2.133333 2.133333c2.133333 0 6.4 2.133333 8.533334 2.133333 2.133333 2.133333 6.4 2.133333 8.533333 2.133334 2.133333 0 2.133333 2.133333 4.266667 2.133333s4.266667 2.133333 6.4 2.133333c4.266667 0 6.4 2.133333 10.666666 2.133334h2.133334c0 6.4 4.266667 6.4 6.4 6.4 2.133333 2.133333 6.4 2.133333 10.666666 4.266666 2.133333 2.133333 6.4 2.133333 8.533334 2.133334h2.133333c2.133333 2.133333 4.266667 2.133333 6.4 2.133333h4.266667c2.133333 0 4.266667 2.133333 6.4 2.133333 2.133333 0 6.4 2.133333 8.533333 2.133334h4.266667c2.133333 2.133333 4.266667 2.133333 6.4 2.133333 4.266667 2.133333 10.666667 0 14.933333 2.133333 2.133333 2.133333 6.4 0 10.666667 2.133334 6.4 2.133333 10.666667 0 17.066666 2.133333h32c2.133333 0 4.266667 0 8.533334-2.133333 4.266667 0 8.533333-2.133333 10.666666-2.133334 4.266667 0 6.4-2.133333 10.666667-2.133333 2.133333-2.133333 6.4-2.133333 8.533333-2.133333 2.133333 0 4.266667 0 6.4-2.133334 2.133333-2.133333 4.266667-2.133333 6.4-2.133333 4.266667 0 6.4-4.266667 8.533334-2.133333 2.133333-2.133333 4.266667-2.133333 8.533333-4.266667 2.133333 0 6.4-2.133333 8.533333-4.266667 4.266667-2.133333 6.4-4.266667 10.666667-6.4 0 0 2.133333 0 4.266667-2.133333 0-2.133333 2.133333-2.133333 4.266666-2.133333s4.266667-2.133333 4.266667-2.133334h2.133333s2.133333 0 2.133334-2.133333c2.133333-4.266667 6.4-4.266667 8.533333-6.4 2.133333-2.133333 6.4-4.266667 8.533333-6.4 4.266667-2.133333 6.4-6.4 10.666667-8.533333 2.133333-2.133333 4.266667-6.4 8.533333-8.533334 2.133333-2.133333 2.133333-4.266667 4.266667-6.4 2.133333-2.133333 4.266667-2.133333 4.266667-4.266666s4.266667-4.266667 6.4-6.4c0-2.133333 2.133333-2.133333 4.266666-4.266667v-2.133333c2.133333 0 0-2.133333 2.133334-2.133334 2.133333-2.133333 2.133333-4.266667 4.266666-6.4 2.133333-2.133333 4.266667-6.4 4.266667-8.533333 2.133333-2.133333 2.133333-6.4 6.4-8.533333 2.133333-2.133333 2.133333-4.266667 4.266667-8.533334s4.266667-8.533333 6.4-14.933333c2.133333-2.133333 2.133333-6.4 4.266666-8.533333 2.133333-2.133333 2.133333-6.4 4.266667-8.533334 2.133333-2.133333 4.266667-6.4 4.266667-8.533333 2.133333-4.266667 4.266667-6.4 4.266666-10.666667 0-2.133333 0-2.133333 2.133334-4.266666s2.133333-4.266667 4.266666-6.4c2.133333-4.266667 4.266667-6.4 4.266667-10.666667 2.133333 0 2.133333-2.133333 2.133333-4.266667 2.133333-2.133333 2.133333-4.266667 4.266667-6.4 2.133333-4.266667 4.266667-6.4 6.4-10.666666 2.133333-2.133333 2.133333-4.266667 4.266667-6.4 2.133333-2.133333 4.266667-6.4 4.266666-10.666667 2.133333-2.133333 2.133333-4.266667 4.266667-6.4 0-2.133333 2.133333-4.266667 2.133333-4.266667 2.133333-2.133333 2.133333-6.4 6.4-8.533333 0-2.133333 0-2.133333 2.133334-4.266667s2.133333-4.266667 4.266666-6.4c2.133333-2.133333 2.133333-4.266667 4.266667-4.266666 2.133333-2.133333 4.266667-6.4 6.4-8.533334 2.133333-2.133333 4.266667-6.4 6.4-8.533333 4.266667-4.266667 6.4-8.533333 10.666667-12.8l10.666666-10.666667h-8.533333" fill="#133C9A"></path></svg>