<svg xmlns="http://www.w3.org/2000/svg" viewBox="0 0 566.93 566.93"><defs><style>.cls-1{opacity:0.37;}.cls-2{fill:#7c7b7c;}.cls-3{fill:#686868;}.cls-4{fill:#8c8b8b;}.cls-5{fill:#727272;}.cls-6{fill:#c0bfbf;}.cls-7{fill:#ddd;}.cls-8{fill:#fff;}</style></defs><title>错误页面</title><g class="cls-1"><polygon class="cls-2" points="376.45 199.88 382.82 191.27 386.19 391.9 376.45 387.07 376.45 199.88"/><polygon class="cls-3" points="180.6 191.27 189.27 199.88 376.45 199.88 382.82 191.27 180.6 191.27"/><path class="cls-4" d="M241,391.9H386.19l-9.74-4.83H239C239.75,388.65,240.41,390.26,241,391.9Z"/><path class="cls-5" d="M175.42,117.23l4.82,68.92a5.51,5.51,0,0,0,5.5,5.12h192a5.51,5.51,0,0,0,5.5-5.11l5.06-68.91a5.52,5.52,0,0,0-5.5-5.92H180.92A5.51,5.51,0,0,0,175.42,117.23Z"/><path class="cls-5" d="M111.24,388.29a70.17,70.17,0,0,1,64.17-41.79A71,71,0,0,1,184,347l-3.25-150.42a6.36,6.36,0,0,0-5.4-6.16l-60.72-9.33a6.37,6.37,0,0,0-7.34,6.41l3.36,198.09A6.2,6.2,0,0,0,111.24,388.29Z"/><path class="cls-2" d="M189.27,347.88v-148l-8.67-8.62L184,347C185.75,347.26,187.52,347.53,189.27,347.88Z"/><path class="cls-6" d="M239,387.07H376.45V199.89H189.27v148A70.25,70.25,0,0,1,239,387.07Z"/><path class="cls-5" d="M245.11,408.82a70.16,70.16,0,0,1,80.76,46.24A70.13,70.13,0,0,1,387,416.68l-.56-17a8,8,0,0,0-8-7.78H241A70.08,70.08,0,0,1,245.11,408.82Z"/><path class="cls-5" d="M383.64,391.84l51.18-1.43a69.87,69.87,0,0,1,33-16.39l-3.27-191.39a2.24,2.24,0,0,0-2.64-2.17c-12.27,2.25-64.33,11.73-76.64,13a2.23,2.23,0,0,1-2.47-2.23l-1.48,198.31A2.24,2.24,0,0,0,383.64,391.84Z"/></g><path class="cls-7" d="M417.7,162.71c-.12-3.69-4.23-6.66-9.28-6.65s-9.15,3-9.26,6.67c-4,.77-6.94,3.43-6.94,6.6,0,3.77,4.17,6.81,9.29,6.8A11.69,11.69,0,0,0,406.6,175a4.13,4.13,0,0,1,3.63,0,11.69,11.69,0,0,0,5.09,1.12c5.13,0,9.27-3.07,9.27-6.83C424.58,166.12,421.66,163.48,417.7,162.71Z"/><path class="cls-7" d="M156.52,141.06c.14-6-6.3-11.22-14.54-11.65-6.23-.32-11.72,2.18-14.23,6-2.56-3.08-7-5.25-12.24-5.52-8.23-.42-15.16,4.06-15.66,10.07-6.58.89-11.62,5-11.88,10.15-.32,6.13,6.19,11.45,14.54,11.88a19.09,19.09,0,0,0,8.39-1.4,6.75,6.75,0,0,1,5.91.3,19.12,19.12,0,0,0,8.21,2.27,18.38,18.38,0,0,0,10.25-2.35,17.28,17.28,0,0,0,2.1-.72,6.71,6.71,0,0,1,5.91.3,19.07,19.07,0,0,0,8.2,2.26c8.35.43,15.38-4.19,15.69-10.32C167.44,147.21,162.9,142.66,156.52,141.06Z"/><rect class="cls-6" x="252.11" y="262.56" width="29" height="1.75"/><rect class="cls-6" x="281.11" y="262.95" width="75.15" height="0.98"/><circle class="cls-6" cx="217.79" cy="236.66" r="23.24"/><path class="cls-8" d="M214.1,225.23h7.49l-.83,14.58h-5.83Zm3.74,25.2a11,11,0,0,1-1.94-.14,1.79,1.79,0,0,1-1.59-1.62,12.53,12.53,0,0,1-.1-1.8,12.84,12.84,0,0,1,.1-1.82,1.94,1.94,0,0,1,.49-1.08,2.06,2.06,0,0,1,1.1-.52,12.69,12.69,0,0,1,3.89,0,2,2,0,0,1,1.09.52,1.82,1.82,0,0,1,.49,1.08,12.63,12.63,0,0,1,.11,1.82,12.32,12.32,0,0,1-.11,1.8,1.94,1.94,0,0,1-.49,1.08,2,2,0,0,1-1.09.54A11,11,0,0,1,217.84,250.43Z"/><path class="cls-6" d="M277.17,233.36h-2.35v4.23H271v-4.23h-1.56c0,.49-.08.94-.13,1.34a9.43,9.43,0,0,1-.21,1.15,8.58,8.58,0,0,1-.34,1.09c-.15.36-.31.73-.51,1.12l-3.8-.9a3.91,3.91,0,0,0,.18-.35l.16-.33-2.3.08v1.16h-4v-1q-1.59,0-3,.12l-2.37.11-.1-3.06,2.55-.07,2.92-.09v-1.19h-4.36V230q.28-.39.6-.87c.22-.32.43-.64.64-1h-1.67v-2.85h3.2l.37-.87,4,.1-.4.77h3.94v2.85h-5.6c-.21.36-.43.7-.65,1l-.65,1h1.48v-1.32h3v1h2.14v2.72h-2.14v1.06l1.27,0,1.14-.06,0,2.86a11.66,11.66,0,0,0,.49-1.26,9.71,9.71,0,0,0,.32-1.36c.08-.49.13-1,.17-1.68s.05-1.35.05-2.18V225.3c1.94-.06,3.75-.14,5.42-.26s3.19-.24,4.55-.38l1,3.52-1.61.15q-.9.09-1.86.15l-2,.12-1.91.08v1.51h7.69Zm-21.52,5h19.14v10.28H255.65Zm4.15,2.43v1.29h10.65v-1.29Zm10.65,5.13v-1.38H259.8v1.38Z"/><path class="cls-6" d="M303.44,241.84c0,.62,0,1.2-.08,1.76s-.11,1.09-.18,1.6a3.46,3.46,0,0,1-1.18,2.44,5.33,5.33,0,0,1-3,.81q-2.36.08-4.68,0a4.3,4.3,0,0,1-2.81-.94,3.87,3.87,0,0,1-1-3v-3.12a19.07,19.07,0,0,1-3.33,3.91,43.73,43.73,0,0,1-5,3.86l-3.33-4c1.21-.7,2.28-1.38,3.21-2a23.71,23.71,0,0,0,2.44-2,11.74,11.74,0,0,0,1.77-2,10.84,10.84,0,0,0,1.19-2.23h-7.35v-4.26h8.25c0-.45.07-.93.09-1.42s0-1,0-1.56h-7.29v-4.21h20.32v4.21h-8.3v0c0,.53,0,1,0,1.54s-.05,1-.08,1.42h9.46v4.26H292.42c-.07.23-.14.45-.2.67a5,5,0,0,1-.23.65l2.91.08V243a1.21,1.21,0,0,0,.32.91,1.45,1.45,0,0,0,.87.36,8.66,8.66,0,0,0,1.61,0,1.82,1.82,0,0,0,.92-.31,1.5,1.5,0,0,0,.43-1c.05-.38.09-.76.12-1.12s.05-.75.07-1.17Z"/><path class="cls-6" d="M328.89,225v23.44H306.14V225Zm-18.79,3.83v6.82l2.13-.5c.69-.18,1.38-.37,2-.58-.22-.15-.43-.29-.64-.45l-.63-.48c-.2.14-.4.28-.61.41l-.64.41L310.13,232l1-.68a9.46,9.46,0,0,0,.86-.62c.26-.21.52-.43.77-.67s.51-.52.79-.83l3.78.08a3.89,3.89,0,0,1-.28.39l-.3.4h7v2.72c-.49.34-1,.65-1.41.94s-.9.57-1.34.83c.67.2,1.34.37,2,.52s1.27.28,1.83.38v-6.66Zm14.77,15.81V236l-1.11,2.7-.83-.26c-.27-.07-.53-.16-.78-.25l-.16,2.12-2.18-.23-2.38-.22-2.36-.19-2.17-.13.24-1.51-.9.28c-.3.1-.62.19-.95.28l-1.19-2.83v8.86Zm-13.24-4.21,2.57.15,3.19.21c1.11.08,2.22.17,3.32.28s2.08.21,2.92.31l-.26,2.91c-.8-.1-1.74-.21-2.83-.31l-3.34-.31-3.29-.26c-1.06-.08-2-.14-2.7-.17Zm9.91-2.4a40.14,40.14,0,0,1-4-1.61c-.41.19-.84.37-1.3.54l-1.45.54c1,.05,2.16.13,3.37.22S320.49,237.9,321.54,238Zm-6.42-5.53a11.3,11.3,0,0,0,1.18.72c.39.21.82.41,1.28.61.35-.14.75-.32,1.19-.53s1-.48,1.56-.8Z"/><path class="cls-6" d="M339.28,234.78c0,.43,0,.83,0,1.22s0,.77-.07,1.14h12.11v11.68h-4.42v-7.35h-8.22c-.14.67-.3,1.31-.48,1.93s-.41,1.23-.65,1.84-.53,1.22-.83,1.83-.65,1.26-1,1.93l-4.36-2.16a27.36,27.36,0,0,0,1.54-2.61,16.83,16.83,0,0,0,1.14-2.84,20.84,20.84,0,0,0,.71-3.39,35.28,35.28,0,0,0,.28-4.27v-9.07l4.31.11v5.65h6.26v-6l4.31.11v5.94h5.68v4.36Z"/><path class="cls-6" d="M250.41,276l-.65.3-.78.33v3.67a2,2,0,0,1,0,.47.62.62,0,0,1-.18.28.84.84,0,0,1-.34.17,3.12,3.12,0,0,1-.52.07l-.71.06-.12-.41.74-.05a3.14,3.14,0,0,0,.39,0,.67.67,0,0,0,.24-.11.56.56,0,0,0,.12-.2,1.58,1.58,0,0,0,0-.34v-3.4l-1.71.71-.1-.39.79-.33,1-.43v-2.63H247v-.42h1.54v-2.34l.4,0v2.31h1.54v.42H249v2.46l.73-.32.6-.27.05.2Zm-.31-1.14a13.41,13.41,0,0,0,1.24-1.89,13.17,13.17,0,0,0,.92-2.09l.38.13c-.09.26-.18.51-.29.76s-.21.5-.33.75h4.44l-.1,5.56a1.86,1.86,0,0,1-.1.6.74.74,0,0,1-.26.38,1.06,1.06,0,0,1-.48.21,5.8,5.8,0,0,1-.73.09l-.84.07-.12-.45.9-.05a5.81,5.81,0,0,0,.61-.07.76.76,0,0,0,.35-.15.49.49,0,0,0,.18-.28,2.58,2.58,0,0,0,.06-.47c0-.08,0-.25,0-.5s0-.55,0-.89,0-.7,0-1.09,0-.75,0-1.1,0-.65,0-.91,0-.45,0-.55h-4.22a15.46,15.46,0,0,1-1.42,2.21Zm7.24,4.13a1.88,1.88,0,0,1,0,.19l0,.33,0,.35a2,2,0,0,0,0,.29,2.3,2.3,0,0,1-.13.57.9.9,0,0,1-.25.35,1.16,1.16,0,0,1-.42.19,3.22,3.22,0,0,1-.62.07,32.32,32.32,0,0,1-3.41,0,3.92,3.92,0,0,1-.69-.1,1,1,0,0,1-.46-.23.91.91,0,0,1-.26-.42,2.35,2.35,0,0,1-.08-.65v-5.19h3.36v3.17h-3v1.91a2,2,0,0,0,.06.53.69.69,0,0,0,.19.32.87.87,0,0,0,.36.18,2.75,2.75,0,0,0,.56.07,25.8,25.8,0,0,0,3.29,0,2.84,2.84,0,0,0,.49-.06.83.83,0,0,0,.3-.14.73.73,0,0,0,.17-.27,2.84,2.84,0,0,0,.11-.46c0-.06,0-.15,0-.26l0-.36c0-.13,0-.24,0-.34v-.18Zm-6-3.84v2.35h2.58V275.1Z"/><path class="cls-6" d="M264.2,280.19l-.35-.36-.48-.45-.49-.45c-.16-.15-.3-.26-.4-.34v3.09h-.36v-3.81h-1.27v3.81h-.36v-3.06a6.84,6.84,0,0,1-.84,1.25,12.89,12.89,0,0,1-1.09,1.15l-.23-.33a9.6,9.6,0,0,0,1.25-1.31,6.35,6.35,0,0,0,.9-1.51h-1.61v-.36h1.62V276.2h-2v-.36h2v-1.3h-1.6v-.35h1.6v-1.43H258.8v-.35h3.32c.08-.1.17-.23.26-.37s.19-.29.29-.44l.25-.45.22-.41.34.17c-.11.2-.25.45-.42.73s-.33.55-.48.77h2.05v.35h-2.15v1.43h1.61v1.65h1.07v.36h-1.07v1.67h-1.61v.63l.19-.23.38.32.52.46.51.47.37.38Zm-3.58-7.89-.44-.66-.51-.66.31-.2c.17.2.34.42.51.65a8,8,0,0,1,.45.68Zm.23,1.89h1.27v-1.43h-1.27Zm0,1.65h1.27v-1.3h-1.27Zm1.27,1.67V276.2h-1.27v1.31Zm.36-3v1.3h1.26v-1.3Zm1.26,1.66h-1.26v1.31h1.26Zm2.87-1a8.32,8.32,0,0,0,.71,3.47,7.45,7.45,0,0,0,1.92,2.57l-.26.32a8.24,8.24,0,0,1-1.6-1.95,7.88,7.88,0,0,1-.9-2.47,8.72,8.72,0,0,1-.31,1.29,6.46,6.46,0,0,1-.5,1.14,7.16,7.16,0,0,1-.74,1.05,13.59,13.59,0,0,1-1,1l-.27-.3a10.92,10.92,0,0,0,1.21-1.3,5.83,5.83,0,0,0,.81-1.35,6.8,6.8,0,0,0,.44-1.55,15.1,15.1,0,0,0,.14-1.91c0-.14,0-.28,0-.42V274l.35,0v.42c0,.12,0,.25,0,.39Zm-2.05,0a17.77,17.77,0,0,0,.85-2.15,19.88,19.88,0,0,0,.55-2.18l.36.07c-.06.33-.14.65-.22,1s-.17.65-.27,1h2.85v.38l-.87,2.35-.35-.09.84-2.26h-2.59c-.11.35-.24.7-.37,1.05s-.29.69-.45,1Z"/><path class="cls-6" d="M271.83,282.1a8.47,8.47,0,0,0,.83-1.51,3.51,3.51,0,0,0,.31-1.39h.54a2.77,2.77,0,0,1-.12.8,4.69,4.69,0,0,1-.28.77q-.18.38-.39.72c-.15.23-.29.43-.42.61Z"/><path class="cls-6" d="M285.39,275.92l-1.6.12-1.32.1v-.36l1.33-.09,1.6-.12v-1.2h-2.21v-.31a8.82,8.82,0,0,0,.5-.75c.18-.29.35-.6.52-.92h-1.5v-.34h1.67c.11-.22.21-.44.3-.64s.17-.39.24-.56l.37.11c-.13.33-.29.69-.48,1.09h2.94v.34h-3.11c-.16.3-.32.6-.49.89s-.33.54-.48.75h1.73V272.9l.38,0V274h1.78v.34h-1.78v1.17l1-.07.84-.07v.35l-.84.06-1,.08v1.19h-.38Zm-1.19,1.41h6.92v4.26h-.43v-.66h-6.08v.69h-.41Zm.41.35V279h6.08v-1.31Zm6.08,2.9v-1.26h-6.08v1.26Zm2.25-6.24h-1.8v2.55h-.39v-2.55H288.6a5.7,5.7,0,0,1-.08.77,3.28,3.28,0,0,1-.19.66,3.38,3.38,0,0,1-.36.63,7.6,7.6,0,0,1-.58.69l-.3-.23a6.52,6.52,0,0,0,.6-.74,2.93,2.93,0,0,0,.35-.68,3.34,3.34,0,0,0,.16-.74c0-.26,0-.58,0-.94v-1.71a17.32,17.32,0,0,0,1.9-.3c.65-.13,1.31-.3,1.95-.49l.12.37c-.61.19-1.23.34-1.84.48s-1.2.23-1.74.29V274h4.32Z"/><path class="cls-6" d="M294.93,272h3.19v8.49h-3.19Zm.38.43V276h2.43v-3.58Zm2.43,7.62v-3.62h-2.43V280Zm7.14-6.14H303V280a2.34,2.34,0,0,1-.07.65.72.72,0,0,1-.24.39,1.17,1.17,0,0,1-.49.2,4.82,4.82,0,0,1-.78.08l-1.13.06-.12-.42,1.16-.05a4.77,4.77,0,0,0,.66-.07.79.79,0,0,0,.37-.15.51.51,0,0,0,.18-.3,1.6,1.6,0,0,0,.05-.48v-6h-4.09v-.43h4.09v-2.62l.41,0v2.59h1.84ZM301,278.1l-.38-.68c-.16-.28-.33-.57-.51-.86s-.34-.56-.51-.82-.3-.47-.4-.62l.34-.19c.11.15.25.35.42.61s.34.53.51.83.35.57.51.85.28.5.38.67Z"/><path class="cls-6" d="M308.4,276l-.52-.43c-.2-.16-.41-.33-.63-.49l-.63-.48c-.2-.16-.38-.28-.52-.38l.24-.33c.14.09.32.2.52.35l.63.48c.22.16.43.33.63.49s.38.31.52.44Zm.21,1.44c-.1.26-.22.56-.37.92s-.3.72-.47,1.09-.34.73-.51,1.08-.32.64-.45.88l-.39-.17c.14-.24.29-.54.47-.89s.34-.71.51-1.08.32-.73.47-1.09.27-.65.37-.91l.21.1Zm.45-4.13c-.12-.12-.29-.26-.48-.42l-.6-.5-.6-.48-.48-.35.24-.34.47.36.59.47.6.5.48.41Zm7.43,8.32a22.42,22.42,0,0,1-2.21-.91,14.75,14.75,0,0,1-1.77-1,17.37,17.37,0,0,1-4.14,2l-.21-.39a16.53,16.53,0,0,0,4-1.87,6,6,0,0,1-2.2-2.84l.37-.18a5.64,5.64,0,0,0,.81,1.48,6.86,6.86,0,0,0,1.37,1.3,7.87,7.87,0,0,0,1.44-1.36,5.47,5.47,0,0,0,.84-1.53h-5.44v-.4h5.9v.39a5.7,5.7,0,0,1-.9,1.68,7.11,7.11,0,0,1-1.48,1.47,12.86,12.86,0,0,0,1.7.95,18.74,18.74,0,0,0,2.12.84Zm-7.32-6.41a4.15,4.15,0,0,0,.79-.54,2.52,2.52,0,0,0,.47-.54,1.8,1.8,0,0,0,.23-.58,3.55,3.55,0,0,0,.06-.67v-1.22h3.76v2.13a.76.76,0,0,0,.15.54.9.9,0,0,0,.6.15h1.19l0,.42h-1.24a1.37,1.37,0,0,1-.84-.21.92.92,0,0,1-.27-.76v-1.88h-2.87V273a3.82,3.82,0,0,1-.06.68,2.06,2.06,0,0,1-.26.64,2.9,2.9,0,0,1-.52.62,4.91,4.91,0,0,1-.86.61Z"/><path class="cls-6" d="M321.77,272.87q-.24.45-.51.87c-.19.27-.38.55-.58.82h6v5.68a1.83,1.83,0,0,1-.06.51.63.63,0,0,1-.21.33.84.84,0,0,1-.39.19,3.22,3.22,0,0,1-.62.07l-1.15.06-.12-.4,1.17,0a3,3,0,0,0,.51-.06.7.7,0,0,0,.3-.13.4.4,0,0,0,.13-.23,2.06,2.06,0,0,0,0-.39v-1h-5.74v2.32h-.39v-6.32c-.35.41-.71.8-1.1,1.18s-.8.74-1.24,1.1l-.21-.39a19.09,19.09,0,0,0,2.05-1.95,13.34,13.34,0,0,0,1.61-2.25h-3.18v-.4h3.41q.21-.39.39-.81c.12-.27.24-.56.35-.84l.42.1c-.1.28-.21.54-.33.8s-.23.5-.36.75h6.27v.4Zm4.54,2.09h-5.74v1.72h5.74Zm0,3.84v-1.74h-5.74v1.74Z"/><path class="cls-6" d="M339.26,271.58V281.7h-.39v-.82h-8v.82h-.39V271.58Zm-.39,8.92V272h-8v8.52Zm-3.66-4.82a12,12,0,0,0,1.48.63c.53.18,1.14.36,1.82.53l-.13.35a20.38,20.38,0,0,1-2-.61,9.89,9.89,0,0,1-1.53-.7,16.72,16.72,0,0,1-1.58.75c-.57.23-1.23.47-2,.7l-.15-.35c.69-.2,1.31-.42,1.85-.63a16.05,16.05,0,0,0,1.49-.69,6.35,6.35,0,0,1-.9-.7,7.64,7.64,0,0,1-.77-.83c-.19.23-.39.46-.6.68s-.42.43-.64.63l-.21-.28a8.4,8.4,0,0,0,.66-.67q.33-.36.63-.75a9.29,9.29,0,0,0,.55-.78,6.91,6.91,0,0,0,.41-.73l.33.15-.29.54a5.14,5.14,0,0,1-.36.55h4v.32a8.42,8.42,0,0,1-2.16,1.89Zm-2.82,2.78,1,.23,1.22.32,1.24.35,1,.31-.08.35-1-.3-1.24-.35L333.3,279c-.39-.11-.71-.19-1-.24Zm.67-4.6a6.73,6.73,0,0,0,1.8,1.61,7.54,7.54,0,0,0,2-1.68h-3.76Zm.24,3.05.67.19.83.24.86.25.72.22-.08.34-.71-.24-.85-.25-.83-.24c-.27-.08-.49-.14-.68-.18Z"/><path class="cls-6" d="M343.74,274.75c0,.87,0,1.62-.07,2.27h5.21v4.58h-.43v-4.17h-4.81a8.27,8.27,0,0,1-.22,1.25,7,7,0,0,1-.37,1.06,6.89,6.89,0,0,1-.55,1,9.94,9.94,0,0,1-.75,1l-.37-.25a11.08,11.08,0,0,0,1-1.33,5.76,5.76,0,0,0,.59-1.39,9.62,9.62,0,0,0,.3-1.7c.06-.64.08-1.4.08-2.29v-3.64l.42,0v3H348v-3.26l.43,0v3.24h3.42v.42h-8.14Z"/><path class="cls-6" d="M355.8,281.63a1.51,1.51,0,0,1-1-.34,1.21,1.21,0,0,1-.42-1,1.24,1.24,0,0,1,.42-1,1.67,1.67,0,0,1,2,0,1.24,1.24,0,0,1,.42,1,1.35,1.35,0,0,1-.12.59,1,1,0,0,1-.31.42,1.24,1.24,0,0,1-.45.25A1.53,1.53,0,0,1,355.8,281.63Zm0-.37a1.08,1.08,0,0,0,.71-.25.91.91,0,0,0,.29-.73.89.89,0,0,0-.29-.72,1,1,0,0,0-.71-.25,1,1,0,0,0-.71.25.89.89,0,0,0-.28.72.91.91,0,0,0,.28.73A1.1,1.1,0,0,0,355.8,281.26Z"/><path class="cls-6" d="M246,292.14a2.55,2.55,0,0,1-.39,0l-.36,0L245,292l-.19-.06v-.29l.22.07.29.07.35.05H246a1.4,1.4,0,0,0,.83-.2.76.76,0,0,0,.29-.68,1.12,1.12,0,0,0,0-.39.61.61,0,0,0-.19-.26,1.15,1.15,0,0,0-.33-.19,2.6,2.6,0,0,0-.51-.15l-.53-.16a1.44,1.44,0,0,1-.37-.21.84.84,0,0,1-.2-.29,1.35,1.35,0,0,1-.06-.43,1,1,0,0,1,.31-.78,1.44,1.44,0,0,1,1-.29h.28l.29,0,.25,0,.2.06v.28a2.31,2.31,0,0,0-.46-.13,3.48,3.48,0,0,0-.57,0,1.3,1.3,0,0,0-.75.18.72.72,0,0,0-.26.63,1.37,1.37,0,0,0,0,.31.62.62,0,0,0,.15.22,1.11,1.11,0,0,0,.29.17,3,3,0,0,0,.49.14,4.4,4.4,0,0,1,.57.17,1.4,1.4,0,0,1,.4.23.89.89,0,0,1,.23.34,1.41,1.41,0,0,1,.08.5,1,1,0,0,1-.37.87A1.73,1.73,0,0,1,246,292.14Z"/><path class="cls-6" d="M249.48,292.14a2.25,2.25,0,0,1-.63-.08.92.92,0,0,1-.43-.28,1.32,1.32,0,0,1-.24-.52,3.08,3.08,0,0,1-.08-.8,3,3,0,0,1,.08-.79,1.2,1.2,0,0,1,.24-.52.85.85,0,0,1,.43-.28,1.91,1.91,0,0,1,.63-.09,2,2,0,0,1,.63.09.9.9,0,0,1,.43.28,1.1,1.1,0,0,1,.25.52,3.5,3.5,0,0,1,.08.79,3.59,3.59,0,0,1-.08.8,1.2,1.2,0,0,1-.25.52,1,1,0,0,1-.43.28A2.35,2.35,0,0,1,249.48,292.14Zm0-.24a1.66,1.66,0,0,0,.54-.08.68.68,0,0,0,.33-.24.93.93,0,0,0,.18-.44,3.3,3.3,0,0,0,.06-.68,3.13,3.13,0,0,0-.06-.67.89.89,0,0,0-.18-.44.66.66,0,0,0-.34-.25,2,2,0,0,0-1.06,0,.66.66,0,0,0-.34.25,1.12,1.12,0,0,0-.18.44,4.08,4.08,0,0,0-.05.67,4.31,4.31,0,0,0,.05.68,1.19,1.19,0,0,0,.18.44.71.71,0,0,0,.34.24A1.6,1.6,0,0,0,249.48,291.9Z"/><path class="cls-6" d="M253.19,288.78l0,.25h-.07l-.31,0a1,1,0,0,0-.28.11.9.9,0,0,0-.25.23,1.22,1.22,0,0,0-.18.38v2.3h-.27v-3.24h.27v.58a.77.77,0,0,1,.18-.32,1,1,0,0,1,.26-.2.86.86,0,0,1,.3-.09l.3,0Z"/><path class="cls-6" d="M255.21,288.78V289h-.07a1.63,1.63,0,0,0-.31,0,1,1,0,0,0-.29.11.87.87,0,0,0-.24.23,1.23,1.23,0,0,0-.19.38v2.3h-.27v-3.24h.27v.58a.91.91,0,0,1,.19-.32,1,1,0,0,1,.26-.2.75.75,0,0,1,.3-.09l.3,0Z"/><path class="cls-6" d="M255.71,293a.9.9,0,0,0,.34-.05.63.63,0,0,0,.27-.16.88.88,0,0,0,.21-.3,3.15,3.15,0,0,0,.2-.47l-1.3-3.22h.29l1.13,2.89h0l1-2.89h.28L257,292.1c-.07.18-.14.34-.21.49a1.41,1.41,0,0,1-.25.37,1,1,0,0,1-.35.24,1.4,1.4,0,0,1-.49.08Z"/><path class="cls-6" d="M257.82,292.9a3.86,3.86,0,0,0,.42-.76,1.79,1.79,0,0,0,.15-.69h.27a1.37,1.37,0,0,1-.05.4,3.12,3.12,0,0,1-.15.39,2.37,2.37,0,0,1-.19.35,2.77,2.77,0,0,1-.21.31Z"/><path class="cls-6" d="M262,291.87h.22a.64.64,0,0,0,.2,0v.25l-.2,0H262a1.35,1.35,0,0,1-.37,0,.47.47,0,0,1-.26-.14.63.63,0,0,1-.13-.31,2.3,2.3,0,0,1-.05-.51v-2h-.52v-.25h.52v-.77h.27v.77h.9v.25h-.9v2a1.86,1.86,0,0,0,0,.36.52.52,0,0,0,.08.23.3.3,0,0,0,.17.12A.93.93,0,0,0,262,291.87Z"/><path class="cls-6" d="M264.34,288.78a1.85,1.85,0,0,1,.51.07.75.75,0,0,1,.32.21.83.83,0,0,1,.18.32,1.88,1.88,0,0,1,0,.43v2.27h-.27V290a2.52,2.52,0,0,0,0-.43.64.64,0,0,0-.13-.3.53.53,0,0,0-.24-.17,1.58,1.58,0,0,0-.41-.05l-.33,0a1,1,0,0,0-.31.11.85.85,0,0,0-.26.24.86.86,0,0,0-.16.4v2.27H263v-4.56h.27v1.88a.73.73,0,0,1,.15-.29.88.88,0,0,1,.27-.19,1.73,1.73,0,0,1,.32-.11A2.07,2.07,0,0,1,264.34,288.78Z"/><path class="cls-6" d="M268.85,290.1v.14a1,1,0,0,1,0,.17l-2.29.17a3.09,3.09,0,0,0,.07.6.92.92,0,0,0,.19.41.68.68,0,0,0,.36.23,1.68,1.68,0,0,0,.55.08,2.53,2.53,0,0,0,.53-.06,1.83,1.83,0,0,0,.48-.14V292l-.18.06-.25.06-.29,0a1.67,1.67,0,0,1-.31,0,2.46,2.46,0,0,1-.65-.08,1,1,0,0,1-.44-.28,1.2,1.2,0,0,1-.25-.52,3.53,3.53,0,0,1-.08-.8,3.13,3.13,0,0,1,.08-.8,1.25,1.25,0,0,1,.24-.52.88.88,0,0,1,.43-.27,2,2,0,0,1,.64-.09,1.43,1.43,0,0,1,.64.12,1,1,0,0,1,.35.31.94.94,0,0,1,.16.43A3.67,3.67,0,0,1,268.85,290.1Zm-.26.09a3.7,3.7,0,0,0,0-.48.86.86,0,0,0-.13-.37.58.58,0,0,0-.28-.23,1.19,1.19,0,0,0-.5-.08,1.62,1.62,0,0,0-.53.07.74.74,0,0,0-.34.23,1.11,1.11,0,0,0-.18.41,4.65,4.65,0,0,0-.06.61Z"/><path class="cls-6" d="M271.18,288.78V289h-.07a1.55,1.55,0,0,0-.31,0,1,1,0,0,0-.29.11,1.07,1.07,0,0,0-.25.23,1.49,1.49,0,0,0-.18.38v2.3h-.27v-3.24h.27v.58a.89.89,0,0,1,.18-.32,1.21,1.21,0,0,1,.26-.2.86.86,0,0,1,.3-.09l.3,0Z"/><path class="cls-6" d="M274.07,290.1v.14a1,1,0,0,1,0,.17l-2.29.17a3.09,3.09,0,0,0,.07.6.92.92,0,0,0,.19.41.68.68,0,0,0,.36.23,1.68,1.68,0,0,0,.55.08,2.53,2.53,0,0,0,.53-.06,1.83,1.83,0,0,0,.48-.14V292l-.18.06-.25.06-.29,0a1.67,1.67,0,0,1-.31,0,2.46,2.46,0,0,1-.65-.08,1,1,0,0,1-.44-.28,1.2,1.2,0,0,1-.25-.52,3.53,3.53,0,0,1-.08-.8,3.13,3.13,0,0,1,.08-.8,1.25,1.25,0,0,1,.24-.52.88.88,0,0,1,.43-.27,2,2,0,0,1,.64-.09,1.43,1.43,0,0,1,.64.12,1,1,0,0,1,.35.31.94.94,0,0,1,.16.43A3.67,3.67,0,0,1,274.07,290.1Zm-.26.09c0-.17,0-.33,0-.48a.86.86,0,0,0-.13-.37.63.63,0,0,0-.28-.23,1.19,1.19,0,0,0-.5-.08,1.62,1.62,0,0,0-.53.07.74.74,0,0,0-.34.23,1.11,1.11,0,0,0-.18.41,4.65,4.65,0,0,0-.06.61Z"/><path class="cls-6" d="M277.69,288.78a1.91,1.91,0,0,1,.59.08.73.73,0,0,1,.35.22.62.62,0,0,1,.17.32,1.62,1.62,0,0,1,.05.4v2.28h-.23l0-.57a1,1,0,0,1-.49.47,1.78,1.78,0,0,1-.78.16,1.2,1.2,0,0,1-.84-.24.94.94,0,0,1-.26-.7,1.22,1.22,0,0,1,.1-.51.79.79,0,0,1,.27-.3,1.07,1.07,0,0,1,.41-.16,3.75,3.75,0,0,1,.5,0h1.09v-.35a1.18,1.18,0,0,0,0-.34.6.6,0,0,0-.14-.26.64.64,0,0,0-.27-.15,1.47,1.47,0,0,0-.46-.06l-.35,0a2.38,2.38,0,0,0-.37.06v-.26l.37-.05Zm-.39,3.11a1.63,1.63,0,0,0,.82-.19,1,1,0,0,0,.46-.57v-.7h-1.06a2.85,2.85,0,0,0-.44,0,1,1,0,0,0-.33.11.6.6,0,0,0-.2.24,1,1,0,0,0-.07.39C276.48,291.66,276.76,291.89,277.3,291.89Z"/><path class="cls-6" d="M281.35,288.78V289h-.07a1.55,1.55,0,0,0-.31,0,.92.92,0,0,0-.29.11,1.07,1.07,0,0,0-.25.23,1.49,1.49,0,0,0-.18.38v2.3H280v-3.24h.27v.58a.77.77,0,0,1,.18-.32,1.21,1.21,0,0,1,.26-.2.86.86,0,0,1,.3-.09l.3,0Z"/><path class="cls-6" d="M284.24,290.1v.14a1,1,0,0,1,0,.17l-2.29.17a3.09,3.09,0,0,0,.07.6.82.82,0,0,0,.19.41.68.68,0,0,0,.36.23,1.68,1.68,0,0,0,.55.08,2.53,2.53,0,0,0,.53-.06,1.83,1.83,0,0,0,.48-.14V292l-.18.06-.25.06-.29,0a1.67,1.67,0,0,1-.31,0,2.46,2.46,0,0,1-.65-.08,1,1,0,0,1-.44-.28,1.2,1.2,0,0,1-.25-.52,3,3,0,0,1-.08-.8,3.13,3.13,0,0,1,.08-.8,1.25,1.25,0,0,1,.24-.52.88.88,0,0,1,.43-.27,2,2,0,0,1,.64-.09,1.43,1.43,0,0,1,.64.12,1,1,0,0,1,.35.31,1.06,1.06,0,0,1,.16.43A3.67,3.67,0,0,1,284.24,290.1Zm-.26.09c0-.17,0-.33,0-.48a.86.86,0,0,0-.13-.37.63.63,0,0,0-.28-.23,1.19,1.19,0,0,0-.5-.08,1.62,1.62,0,0,0-.53.07.74.74,0,0,0-.34.23,1.11,1.11,0,0,0-.18.41,4.65,4.65,0,0,0-.06.61Z"/><path class="cls-6" d="M288,288.78a1.85,1.85,0,0,1,.51.07.75.75,0,0,1,.32.21.71.71,0,0,1,.17.32,1.44,1.44,0,0,1,.06.43v2.27h-.27V290a2.52,2.52,0,0,0,0-.43.64.64,0,0,0-.13-.3.51.51,0,0,0-.25-.17,1.45,1.45,0,0,0-.4-.05l-.33,0a1.21,1.21,0,0,0-.32.11.94.94,0,0,0-.25.24.86.86,0,0,0-.16.4v2.27h-.27v-3.24h.27v.56a.73.73,0,0,1,.15-.29.83.83,0,0,1,.26-.19,2.13,2.13,0,0,1,.33-.11A2.07,2.07,0,0,1,288,288.78Z"/><path class="cls-6" d="M291.33,292.14a2.38,2.38,0,0,1-.64-.08.94.94,0,0,1-.42-.28,1.32,1.32,0,0,1-.24-.52,3.08,3.08,0,0,1-.08-.8,3,3,0,0,1,.08-.79,1.2,1.2,0,0,1,.24-.52.87.87,0,0,1,.42-.28,2,2,0,0,1,.64-.09,2,2,0,0,1,.63.09.9.9,0,0,1,.43.28,1.1,1.1,0,0,1,.25.52,3.5,3.5,0,0,1,.08.79,3.59,3.59,0,0,1-.08.8,1.2,1.2,0,0,1-.25.52,1,1,0,0,1-.43.28A2.35,2.35,0,0,1,291.33,292.14Zm0-.24a1.6,1.6,0,0,0,.53-.08.66.66,0,0,0,.34-.24.93.93,0,0,0,.18-.44,3.3,3.3,0,0,0,.06-.68,3.13,3.13,0,0,0-.06-.67.89.89,0,0,0-.18-.44.71.71,0,0,0-.34-.25,2,2,0,0,0-1.06,0,.62.62,0,0,0-.34.25.89.89,0,0,0-.18.44,4.08,4.08,0,0,0,0,.67,4.31,4.31,0,0,0,0,.68.93.93,0,0,0,.18.44.66.66,0,0,0,.34.24A1.6,1.6,0,0,0,291.33,291.9Z"/><path class="cls-6" d="M296.52,288.78a1.5,1.5,0,0,1,.6.11.92.92,0,0,1,.39.31,1.83,1.83,0,0,1,.21.53,4,4,0,0,1,.06.73,3.69,3.69,0,0,1-.06.69,1.72,1.72,0,0,1-.21.53,1,1,0,0,1-.39.34,1.34,1.34,0,0,1-.6.12,1.56,1.56,0,0,1-.46-.06,1.17,1.17,0,0,1-.34-.15,1,1,0,0,1-.23-.24,1,1,0,0,1-.14-.29v1.88h-.27v-4.44h.27v.71a1,1,0,0,1,.37-.56A1.29,1.29,0,0,1,296.52,288.78Zm0,3.12a1.22,1.22,0,0,0,.51-.1.75.75,0,0,0,.32-.29,1.14,1.14,0,0,0,.15-.45,3.7,3.7,0,0,0,0-.6,3.87,3.87,0,0,0,0-.62,1.14,1.14,0,0,0-.16-.45.68.68,0,0,0-.31-.27,1.23,1.23,0,0,0-.51-.09,1.11,1.11,0,0,0-.54.11.84.84,0,0,0-.35.29,1.27,1.27,0,0,0-.19.46,3.27,3.27,0,0,0,0,1.14,1.27,1.27,0,0,0,.19.46.79.79,0,0,0,.35.3A1.24,1.24,0,0,0,296.47,291.9Z"/><path class="cls-6" d="M298.86,288.12a.22.22,0,0,1-.14,0s0-.08,0-.17,0-.14,0-.16a.34.34,0,0,1,.28,0s0,.08,0,.16,0,.15,0,.17A.22.22,0,0,1,298.86,288.12Zm-.13.72H299v3.24h-.27Z"/><path class="cls-6" d="M301.28,292.14a2.22,2.22,0,0,1-.62-.08.94.94,0,0,1-.42-.28,1.32,1.32,0,0,1-.24-.52,3.59,3.59,0,0,1-.08-.8,3.5,3.5,0,0,1,.08-.79,1.2,1.2,0,0,1,.24-.52.87.87,0,0,1,.42-.28,1.89,1.89,0,0,1,.62-.09,3.43,3.43,0,0,1,.48,0,2.49,2.49,0,0,1,.34.08v.27a2.22,2.22,0,0,0-.39-.1,3.11,3.11,0,0,0-.43,0,1.53,1.53,0,0,0-.51.07.78.78,0,0,0-.33.24,1.12,1.12,0,0,0-.18.44,4.65,4.65,0,0,0,0,1.36,1.19,1.19,0,0,0,.18.44.65.65,0,0,0,.33.24,1.52,1.52,0,0,0,.51.08,2.06,2.06,0,0,0,.45,0,2.22,2.22,0,0,0,.39-.12V292a2.14,2.14,0,0,1-.37.1A1.83,1.83,0,0,1,301.28,292.14Z"/><path class="cls-6" d="M303.74,291.87H304l.2,0v.25l-.21,0h-.21a1.38,1.38,0,0,1-.38,0,.41.41,0,0,1-.25-.14.64.64,0,0,1-.14-.31,2.39,2.39,0,0,1,0-.51v-2h-.52v-.25h.52v-.77h.27v.77h.89v.25h-.89v2a3.53,3.53,0,0,0,0,.36.69.69,0,0,0,.08.23.3.3,0,0,0,.17.12A1,1,0,0,0,303.74,291.87Z"/><path class="cls-6" d="M307.12,288.84v3.24h-.23l0-.57a.71.71,0,0,1-.15.3.83.83,0,0,1-.26.19,1.17,1.17,0,0,1-.33.11,2,2,0,0,1-.34,0,1.53,1.53,0,0,1-.51-.07.92.92,0,0,1-.32-.2.86.86,0,0,1-.17-.33,1.91,1.91,0,0,1,0-.43v-2.27H305v2.1a2.63,2.63,0,0,0,0,.43.68.68,0,0,0,.12.3.58.58,0,0,0,.25.17,1.45,1.45,0,0,0,.4.05l.33,0a1,1,0,0,0,.31-.11.82.82,0,0,0,.25-.24.87.87,0,0,0,.16-.39v-2.28Z"/><path class="cls-6" d="M309.62,288.78V289h-.07a1.55,1.55,0,0,0-.31,0,1,1,0,0,0-.29.11,1.07,1.07,0,0,0-.25.23,1.49,1.49,0,0,0-.18.38v2.3h-.27v-3.24h.27v.58a1.07,1.07,0,0,1,.18-.32,1.05,1.05,0,0,1,.27-.2.75.75,0,0,1,.3-.09l.3,0Z"/><path class="cls-6" d="M312.51,290.1v.14a1,1,0,0,1,0,.17l-2.28.17a2.52,2.52,0,0,0,.06.6.92.92,0,0,0,.19.41.68.68,0,0,0,.36.23,1.73,1.73,0,0,0,.55.08,2.46,2.46,0,0,0,.53-.06,1.83,1.83,0,0,0,.48-.14V292l-.18.06-.25.06-.29,0a1.67,1.67,0,0,1-.31,0,2.46,2.46,0,0,1-.65-.08,1,1,0,0,1-.44-.28,1.33,1.33,0,0,1-.25-.52,3.53,3.53,0,0,1-.08-.8,3.66,3.66,0,0,1,.08-.8,1.25,1.25,0,0,1,.24-.52.91.91,0,0,1,.44-.27,1.91,1.91,0,0,1,.63-.09,1.43,1.43,0,0,1,.64.12,1.1,1.1,0,0,1,.36.31,1.05,1.05,0,0,1,.15.43A3.67,3.67,0,0,1,312.51,290.1Zm-.25.09a3.64,3.64,0,0,0,0-.48.86.86,0,0,0-.13-.37.58.58,0,0,0-.28-.23,1.19,1.19,0,0,0-.5-.08,1.62,1.62,0,0,0-.53.07.66.66,0,0,0-.33.23.86.86,0,0,0-.18.41,2.68,2.68,0,0,0-.06.61Z"/><path class="cls-6" d="M314.18,292.12a4.07,4.07,0,0,1-.5,0,2.41,2.41,0,0,1-.43-.07v-.26a2.24,2.24,0,0,0,.42.08,4.12,4.12,0,0,0,.51,0,1.12,1.12,0,0,0,.64-.15.57.57,0,0,0,.21-.49.62.62,0,0,0,0-.25.44.44,0,0,0-.12-.19.89.89,0,0,0-.24-.14l-.38-.12a2.79,2.79,0,0,1-.43-.13.88.88,0,0,1-.29-.16.53.53,0,0,1-.16-.23.93.93,0,0,1-.06-.36.79.79,0,0,1,.29-.66,1.25,1.25,0,0,1,.76-.21,3.79,3.79,0,0,1,.49,0,2.7,2.7,0,0,1,.35.08l0,.26-.37-.09-.45,0a1,1,0,0,0-.57.14.53.53,0,0,0-.21.48.68.68,0,0,0,.05.27.37.37,0,0,0,.13.17.57.57,0,0,0,.22.11l.31.09a3.18,3.18,0,0,1,.46.14,1.15,1.15,0,0,1,.31.18.64.64,0,0,1,.18.25,1,1,0,0,1,.06.37.83.83,0,0,1-.27.65A1.23,1.23,0,0,1,314.18,292.12Z"/><path class="cls-6" d="M318.84,288.78a1.86,1.86,0,0,1,.59.08.81.81,0,0,1,.36.22.71.71,0,0,1,.17.32,1.64,1.64,0,0,1,0,.4v2.28h-.23l0-.57a1,1,0,0,1-.49.47,1.78,1.78,0,0,1-.78.16,1.2,1.2,0,0,1-.84-.24.94.94,0,0,1-.25-.7,1.08,1.08,0,0,1,.1-.51.66.66,0,0,1,.27-.3,1,1,0,0,1,.4-.16,3.9,3.9,0,0,1,.5,0h1.09v-.35a1.18,1.18,0,0,0,0-.34.51.51,0,0,0-.14-.26.58.58,0,0,0-.27-.15,1.44,1.44,0,0,0-.45-.06l-.35,0a2.32,2.32,0,0,0-.38.06v-.26l.37-.05Zm-.39,3.11a1.61,1.61,0,0,0,.82-.19,1,1,0,0,0,.46-.57v-.7h-1.05a3,3,0,0,0-.45,0,.93.93,0,0,0-.32.11.48.48,0,0,0-.2.24.88.88,0,0,0-.07.39Q317.64,291.89,318.45,291.89Z"/><path class="cls-6" d="M321.93,291.87h.22a.64.64,0,0,0,.2,0v.25l-.2,0h-.22a1.35,1.35,0,0,1-.37,0,.47.47,0,0,1-.26-.14.63.63,0,0,1-.13-.31,2.3,2.3,0,0,1-.05-.51v-2h-.52v-.25h.52v-.77h.27v.77h.9v.25h-.9v2a1.86,1.86,0,0,0,0,.36.52.52,0,0,0,.08.23.3.3,0,0,0,.17.12A.93.93,0,0,0,321.93,291.87Z"/><path class="cls-6" d="M325.17,291.87h.22a.64.64,0,0,0,.2,0v.25l-.2,0h-.22a1.35,1.35,0,0,1-.37,0,.47.47,0,0,1-.26-.14.63.63,0,0,1-.13-.31,2.3,2.3,0,0,1-.05-.51v-2h-.52v-.25h.52v-.77h.27v.77h.9v.25h-.9v2a1.86,1.86,0,0,0,0,.36.52.52,0,0,0,.08.23.3.3,0,0,0,.17.12A.93.93,0,0,0,325.17,291.87Z"/><path class="cls-6" d="M327.55,288.78a1.85,1.85,0,0,1,.51.07.75.75,0,0,1,.32.21.71.71,0,0,1,.17.32,1.44,1.44,0,0,1,.06.43v2.27h-.27V290a2.52,2.52,0,0,0,0-.43.64.64,0,0,0-.13-.3.53.53,0,0,0-.24-.17,1.58,1.58,0,0,0-.41-.05l-.33,0a1,1,0,0,0-.31.11.85.85,0,0,0-.26.24.86.86,0,0,0-.16.4v2.27h-.27v-4.56h.27v1.88a.73.73,0,0,1,.15-.29.77.77,0,0,1,.27-.19,1.73,1.73,0,0,1,.32-.11A2.07,2.07,0,0,1,327.55,288.78Z"/><path class="cls-6" d="M332.06,290.1v.14a1,1,0,0,1,0,.17l-2.29.17a3.09,3.09,0,0,0,.07.6.82.82,0,0,0,.19.41.68.68,0,0,0,.36.23,1.68,1.68,0,0,0,.55.08,2.53,2.53,0,0,0,.53-.06,1.83,1.83,0,0,0,.48-.14V292l-.18.06-.25.06-.29,0a1.67,1.67,0,0,1-.31,0,2.46,2.46,0,0,1-.65-.08,1,1,0,0,1-.44-.28,1.2,1.2,0,0,1-.25-.52,3,3,0,0,1-.08-.8,3.13,3.13,0,0,1,.08-.8,1.25,1.25,0,0,1,.24-.52.88.88,0,0,1,.43-.27,2,2,0,0,1,.64-.09,1.43,1.43,0,0,1,.64.12,1,1,0,0,1,.35.31,1.06,1.06,0,0,1,.16.43A3.67,3.67,0,0,1,332.06,290.1Zm-.26.09a3.7,3.7,0,0,0,0-.48.86.86,0,0,0-.13-.37.58.58,0,0,0-.28-.23,1.19,1.19,0,0,0-.5-.08,1.62,1.62,0,0,0-.53.07.74.74,0,0,0-.34.23,1.11,1.11,0,0,0-.18.41,4.65,4.65,0,0,0-.06.61Z"/><path class="cls-6" d="M337.69,288.78a1.55,1.55,0,0,1,.47.07.81.81,0,0,1,.3.21.8.8,0,0,1,.16.32,1.91,1.91,0,0,1,0,.43v2.27h-.27V290a2.63,2.63,0,0,0,0-.43.75.75,0,0,0-.11-.3.47.47,0,0,0-.22-.17,1.35,1.35,0,0,0-.38-.05,1.63,1.63,0,0,0-.31,0,1,1,0,0,0-.29.11.85.85,0,0,0-.22.24,1,1,0,0,0-.15.4h0v2.27h-.27V290a2.63,2.63,0,0,0,0-.43.75.75,0,0,0-.11-.3.47.47,0,0,0-.22-.17,1.27,1.27,0,0,0-.37-.05,1.73,1.73,0,0,0-.32,0,.75.75,0,0,0-.28.11.84.84,0,0,0-.23.23,1,1,0,0,0-.14.38v2.3h-.27v-3.24h.27v.54a.67.67,0,0,1,.14-.28.71.71,0,0,1,.23-.19,1.32,1.32,0,0,1,.3-.1l.33,0a1.07,1.07,0,0,1,.65.17.82.82,0,0,1,.29.46.61.61,0,0,1,.14-.29.82.82,0,0,1,.25-.2,1.42,1.42,0,0,1,.31-.11A1.87,1.87,0,0,1,337.69,288.78Z"/><path class="cls-6" d="M341,292.14a2.3,2.3,0,0,1-.63-.08,1,1,0,0,1-.43-.28,1.32,1.32,0,0,1-.24-.52,3.59,3.59,0,0,1-.08-.8,3.5,3.5,0,0,1,.08-.79,1.2,1.2,0,0,1,.24-.52.9.9,0,0,1,.43-.28,2,2,0,0,1,.63-.09,1.91,1.91,0,0,1,.63.09.93.93,0,0,1,.44.28,1.2,1.2,0,0,1,.25.52,3.5,3.5,0,0,1,.08.79,3.59,3.59,0,0,1-.08.8,1.33,1.33,0,0,1-.25.52,1,1,0,0,1-.44.28A2.25,2.25,0,0,1,341,292.14Zm0-.24a1.62,1.62,0,0,0,.54-.08.71.71,0,0,0,.34-.24,1.19,1.19,0,0,0,.18-.44,3.37,3.37,0,0,0,.05-.68,3.21,3.21,0,0,0-.05-.67,1.12,1.12,0,0,0-.18-.44.69.69,0,0,0-.35-.25A1.58,1.58,0,0,0,341,289a1.62,1.62,0,0,0-.53.07.71.71,0,0,0-.34.25,1,1,0,0,0-.17.44,3.21,3.21,0,0,0-.05.67,3.37,3.37,0,0,0,.05.68,1,1,0,0,0,.17.44.76.76,0,0,0,.34.24A1.6,1.6,0,0,0,341,291.9Z"/><path class="cls-6" d="M346.54,288.78a1.55,1.55,0,0,1,.47.07.81.81,0,0,1,.3.21.8.8,0,0,1,.16.32,1.91,1.91,0,0,1,0,.43v2.27h-.27V290a2.63,2.63,0,0,0,0-.43.75.75,0,0,0-.11-.3.47.47,0,0,0-.22-.17,1.3,1.3,0,0,0-.38-.05,1.63,1.63,0,0,0-.31,0,1,1,0,0,0-.29.11.85.85,0,0,0-.22.24,1,1,0,0,0-.15.4h0v2.27h-.27V290a2.63,2.63,0,0,0,0-.43.63.63,0,0,0-.11-.3.47.47,0,0,0-.22-.17,1.27,1.27,0,0,0-.37-.05,1.55,1.55,0,0,0-.31,0,.73.73,0,0,0-.29.11.7.7,0,0,0-.22.23.89.89,0,0,0-.15.38v2.3h-.27v-3.24h.27v.54a.67.67,0,0,1,.14-.28.71.71,0,0,1,.23-.19,1.32,1.32,0,0,1,.3-.1l.33,0a1.07,1.07,0,0,1,.65.17.82.82,0,0,1,.29.46.61.61,0,0,1,.14-.29.82.82,0,0,1,.25-.2,1.42,1.42,0,0,1,.31-.11A1.87,1.87,0,0,1,346.54,288.78Z"/><path class="cls-6" d="M351,290.1v.14c0,.05,0,.11,0,.17l-2.29.17a3.18,3.18,0,0,0,.06.6.93.93,0,0,0,.2.41.62.62,0,0,0,.35.23,1.73,1.73,0,0,0,.55.08,2.62,2.62,0,0,0,.54-.06,1.83,1.83,0,0,0,.48-.14V292l-.18.06-.25.06-.3,0a1.51,1.51,0,0,1-.3,0,2.4,2.4,0,0,1-.65-.08,1,1,0,0,1-.44-.28,1.21,1.21,0,0,1-.26-.52,3.53,3.53,0,0,1-.08-.8,3.66,3.66,0,0,1,.08-.8,1.26,1.26,0,0,1,.25-.52.84.84,0,0,1,.43-.27,2,2,0,0,1,.64-.09,1.39,1.39,0,0,1,.63.12.92.92,0,0,1,.36.31,1.05,1.05,0,0,1,.15.43A2.45,2.45,0,0,1,351,290.1Zm-.26.09a3.64,3.64,0,0,0,0-.48.85.85,0,0,0-.12-.37.61.61,0,0,0-.29-.23,1.16,1.16,0,0,0-.5-.08,1.56,1.56,0,0,0-.52.07.69.69,0,0,0-.34.23,1.11,1.11,0,0,0-.18.41,2.68,2.68,0,0,0-.06.61Z"/><path class="cls-6" d="M353.28,288.78a1.74,1.74,0,0,1,.51.07.78.78,0,0,1,.33.21.82.82,0,0,1,.17.32,1.88,1.88,0,0,1,0,.43v2.27h-.27V290a1.8,1.8,0,0,0,0-.43.63.63,0,0,0-.12-.3.56.56,0,0,0-.25-.17,1.53,1.53,0,0,0-.41-.05l-.33,0a1.15,1.15,0,0,0-.31.11.89.89,0,0,0-.42.64v2.27h-.27v-3.24h.27v.56a.73.73,0,0,1,.15-.29,1,1,0,0,1,.27-.19,1.6,1.6,0,0,1,.33-.11A2,2,0,0,1,353.28,288.78Z"/><path class="cls-6" d="M356.24,291.87h.22a.69.69,0,0,0,.2,0v.25l-.21,0h-.21a1.43,1.43,0,0,1-.38,0,.48.48,0,0,1-.25-.14.74.74,0,0,1-.14-.31,3.29,3.29,0,0,1,0-.51v-2h-.52v-.25h.52v-.77h.27v.77h.89v.25h-.89v2a3.53,3.53,0,0,0,0,.36.69.69,0,0,0,.09.23.28.28,0,0,0,.16.12A1,1,0,0,0,356.24,291.87Z"/><path class="cls-6" d="M357.47,292.14a.37.37,0,0,1-.21,0,.35.35,0,0,1-.05-.22.33.33,0,0,1,.05-.22.37.37,0,0,1,.21,0,.32.32,0,0,1,.19,0,.33.33,0,0,1,0,.22.35.35,0,0,1,0,.22A.32.32,0,0,1,357.47,292.14Z"/><path class="cls-6" d="M343,359.7l-16.65,8.67-24.14-20.59-41.61,18.14V377a5,5,0,0,0,5,5h87.94a5,5,0,0,0,5-5v-5.63Z"/><path class="cls-6" d="M303.26,341.14l23.45,22.77,16.63-11.68L358.41,371V313.83a5,5,0,0,0-5-5H265.51a5,5,0,0,0-5,5v52.09C260.55,365.6,303.26,341.14,303.26,341.14Zm33.52-21.2a9.1,9.1,0,1,1-9.1,9.1A9.09,9.09,0,0,1,336.78,319.94Z"/></svg>