<?xml version="1.0" standalone="no"?><!DOCTYPE svg PUBLIC "-//W3C//DTD SVG 1.1//EN" "http://www.w3.org/Graphics/SVG/1.1/DTD/svg11.dtd"><svg viewBox="0 0 1024 1024" version="1.1" xmlns="http://www.w3.org/2000/svg" xmlns:xlink="http://www.w3.org/1999/xlink" width="200" height="200"><path d="M170.666667 0h682.666666c93.866667 0 170.666667 76.8 170.666667 170.666667v682.666666c0 93.866667-76.8 170.666667-170.666667 170.666667h-682.666666c-93.866667 0-170.666667-76.8-170.666667-170.666667V170.666667c0-93.866667 76.8-170.666667 170.666667-170.666667z" fill="#FFD251"></path><path d="M742.4 618.666667c-8.533333 34.133333-17.066667 59.733333-29.866667 72.533333-4.266667 4.266667-8.533333 12.8-12.8 17.066667l-17.066666 17.066666c-17.066667 12.8-38.4 25.6-68.266667 34.133334-42.666667 8.533333-81.066667 12.8-102.4 12.8s-59.733333 0-102.4-12.8c-29.866667-8.533333-55.466667-21.333333-68.266667-34.133334-4.266667-4.266667-12.8-8.533333-17.066666-17.066666-4.266667-4.266667-12.8-12.8-12.8-17.066667-12.8-17.066667-21.333333-42.666667-29.866667-72.533333-8.533333-42.666667-12.8-85.333333-12.8-106.666667s0-64 12.8-106.666667c8.533333-34.133333 17.066667-59.733333 29.866667-72.533333 4.266667-4.266667 8.533333-12.8 12.8-17.066667l17.066666-17.066666c17.066667-12.8 38.4-25.6 68.266667-34.133334 42.666667-8.533333 81.066667-12.8 102.4-12.8s59.733333 0 102.4 12.8c29.866667 8.533333 55.466667 21.333333 68.266667 34.133334 4.266667 4.266667 12.8 8.533333 17.066666 17.066666 4.266667 4.266667 12.8 12.8 12.8 17.066667 12.8 17.066667 21.333333 42.666667 29.866667 72.533333 8.533333 42.666667 8.533333 85.333333 8.533333 106.666667 4.266667 21.333333 4.266667 64-8.533333 106.666667z m-145.066667-110.933334c-12.8 0-38.4-8.533333-72.533333-29.866666-38.4-21.333333-72.533333-34.133333-93.866667-34.133334-46.933333-4.266667-89.6 25.6-132.266666 85.333334l46.933333 29.866666c25.6-29.866667 46.933333-46.933333 72.533333-46.933333 12.8 0 29.866667 4.266667 51.2 17.066667l42.666667 21.333333c25.6 12.8 51.2 21.333333 68.266667 21.333333h4.266666c46.933333 0 93.866667-29.866667 132.266667-85.333333l-46.933333-29.866667c-21.333333 34.133333-46.933333 51.2-72.533334 51.2z m256 4.266667c0-132.266667-42.666667-204.8-98.133333-256-68.266667-59.733333-145.066667-85.333333-243.2-85.333333-93.866667 0-174.933333 25.6-243.2 85.333333-55.466667 51.2-98.133333 123.733333-98.133333 256s42.666667 204.8 98.133333 256c68.266667 59.733333 145.066667 85.333333 243.2 85.333333 93.866667 0 174.933333-21.333333 243.2-85.333333 51.2-51.2 98.133333-128 98.133333-256z" fill="#585858"></path></svg>